<svg xmlns="http://www.w3.org/2000/svg" viewBox="0 0 24 24" fill="none">
  <path d="M21 10.873c-.275-1.984-1.194-3.821-2.614-5.23-1.42-1.41-3.263-2.312-5.246-2.568-1.982-.256-3.993.148-5.724 1.149C5.685 5.226 4.331 6.77 3.563 8.619M3 4.11v4.509h4.5M3 13.127c.275 1.984 1.194 3.821 2.614 5.231 1.42 1.409 3.263 2.311 5.246 2.567 1.982.256 3.993-.148 5.724-1.149 1.731-1.002 3.085-2.546 3.854-4.395M21 19.89v-4.509h-4.5" stroke="#ECE9D8" stroke-width="2" stroke-linecap="round" stroke-linejoin="round"/>
</svg>
